<svg width="151" height="16" viewBox="0 0 151 16" fill="none" xmlns="http://www.w3.org/2000/svg">
<path d="M0 2.91193V0.703125H11.6051V2.91193H7.10938V15.2486H4.49574V2.91193H0Z" fill="#2F2A27"/>
<path d="M16.9052 15.4616C15.8398 15.4616 14.9165 15.2273 14.1353 14.7585C13.354 14.2898 12.748 13.634 12.3171 12.7912C11.891 11.9484 11.6779 10.9635 11.6779 9.83665C11.6779 8.70975 11.891 7.72254 12.3171 6.875C12.748 6.02746 13.354 5.36932 14.1353 4.90057C14.9165 4.43182 15.8398 4.19744 16.9052 4.19744C17.9705 4.19744 18.8938 4.43182 19.6751 4.90057C20.4563 5.36932 21.06 6.02746 21.4862 6.875C21.917 7.72254 22.1325 8.70975 22.1325 9.83665C22.1325 10.9635 21.917 11.9484 21.4862 12.7912C21.06 13.634 20.4563 14.2898 19.6751 14.7585C18.8938 15.2273 17.9705 15.4616 16.9052 15.4616ZM16.9194 13.402C17.497 13.402 17.98 13.2434 18.3683 12.9261C18.7565 12.6042 19.0453 12.1733 19.2347 11.6335C19.4289 11.0938 19.5259 10.4924 19.5259 9.82955C19.5259 9.16193 19.4289 8.55824 19.2347 8.01847C19.0453 7.47396 18.7565 7.04072 18.3683 6.71875C17.98 6.39678 17.497 6.2358 16.9194 6.2358C16.3275 6.2358 15.8351 6.39678 15.4421 6.71875C15.0539 7.04072 14.7627 7.47396 14.5685 8.01847C14.3791 8.55824 14.2844 9.16193 14.2844 9.82955C14.2844 10.4924 14.3791 11.0938 14.5685 11.6335C14.7627 12.1733 15.0539 12.6042 15.4421 12.9261C15.8351 13.2434 16.3275 13.402 16.9194 13.402Z" fill="#2F2A27"/>
<path d="M24.4283 15.2486V0.703125H26.9993V6.14347H27.1058C27.2384 5.87831 27.4254 5.59659 27.6669 5.2983C27.9084 4.99527 28.2351 4.73722 28.647 4.52415C29.0589 4.30634 29.5845 4.19744 30.2237 4.19744C31.0665 4.19744 31.8265 4.41288 32.5036 4.84375C33.1854 5.26989 33.7251 5.90199 34.1229 6.74006C34.5253 7.57339 34.7266 8.59612 34.7266 9.80824C34.7266 11.0062 34.5301 12.0241 34.1371 12.8622C33.7441 13.7003 33.209 14.3395 32.532 14.7798C31.8549 15.2202 31.0878 15.4403 30.2308 15.4403C29.6058 15.4403 29.0874 15.3362 28.6754 15.1278C28.2635 14.9195 27.9321 14.6686 27.6811 14.375C27.4349 14.0767 27.2431 13.795 27.1058 13.5298H26.9567V15.2486H24.4283ZM26.9496 9.79403C26.9496 10.4995 27.049 11.1174 27.2479 11.6477C27.4515 12.178 27.7427 12.5923 28.1214 12.8906C28.505 13.1842 28.969 13.331 29.5135 13.331C30.0817 13.331 30.5575 13.1795 30.9411 12.8764C31.3246 12.5687 31.6134 12.1496 31.8075 11.6193C32.0064 11.0843 32.1058 10.4759 32.1058 9.79403C32.1058 9.11695 32.0088 8.51563 31.8146 7.99006C31.6205 7.46449 31.3317 7.05256 30.9482 6.75426C30.5646 6.45597 30.0864 6.30682 29.5135 6.30682C28.9643 6.30682 28.4979 6.45123 28.1143 6.74006C27.7308 7.02888 27.4396 7.43371 27.2408 7.95455C27.0466 8.47538 26.9496 9.08854 26.9496 9.79403Z" fill="#2F2A27"/>
<path d="M36.9123 15.2486V4.33949H39.4833V15.2486H36.9123ZM38.2049 2.79119C37.7977 2.79119 37.4473 2.65625 37.1538 2.38636C36.8602 2.11174 36.7134 1.78267 36.7134 1.39915C36.7134 1.01089 36.8602 0.681818 37.1538 0.411931C37.4473 0.13731 37.7977 0 38.2049 0C38.6168 0 38.9672 0.13731 39.256 0.411931C39.5496 0.681818 39.6964 1.01089 39.6964 1.39915C39.6964 1.78267 39.5496 2.11174 39.256 2.38636C38.9672 2.65625 38.6168 2.79119 38.2049 2.79119Z" fill="#2F2A27"/>
<path d="M45.2663 15.4688C44.575 15.4688 43.9524 15.3456 43.3984 15.0994C42.8492 14.8485 42.4136 14.4792 42.0916 13.9915C41.7744 13.5038 41.6158 12.9025 41.6158 12.1875C41.6158 11.572 41.7294 11.063 41.9567 10.6605C42.1839 10.2581 42.4941 9.93608 42.8871 9.6946C43.2801 9.45313 43.7228 9.27083 44.2152 9.14773C44.7124 9.01989 45.2261 8.92756 45.7564 8.87074C46.3956 8.80445 46.9141 8.74527 47.3118 8.69318C47.7095 8.63636 47.9983 8.55114 48.1783 8.4375C48.3629 8.31913 48.4553 8.13684 48.4553 7.89062V7.84801C48.4553 7.31297 48.2966 6.89867 47.9794 6.60511C47.6622 6.31155 47.2053 6.16477 46.6087 6.16477C45.9789 6.16477 45.4794 6.30208 45.1101 6.5767C44.7455 6.85133 44.4993 7.17566 44.3714 7.54972L41.9709 7.20881C42.1603 6.54593 42.4728 5.99195 42.9084 5.54688C43.344 5.09706 43.8767 4.76089 44.5064 4.53835C45.1361 4.31108 45.8321 4.19744 46.5945 4.19744C47.12 4.19744 47.6432 4.259 48.1641 4.3821C48.6849 4.50521 49.1608 4.70881 49.5916 4.9929C50.0225 5.27225 50.3681 5.65341 50.6286 6.13636C50.8937 6.61932 51.0263 7.22301 51.0263 7.94744V15.2486H48.5547V13.75H48.4695C48.3132 14.053 48.093 14.3371 47.8089 14.6023C47.5296 14.8627 47.1768 15.0734 46.7507 15.2344C46.3293 15.3906 45.8345 15.4688 45.2663 15.4688ZM45.9339 13.5795C46.45 13.5795 46.8975 13.4777 47.2763 13.2741C47.6551 13.0658 47.9463 12.7912 48.1499 12.4503C48.3582 12.1094 48.4624 11.7377 48.4624 11.3352V10.0497C48.3819 10.116 48.2446 10.1776 48.0504 10.2344C47.861 10.2912 47.648 10.3409 47.4112 10.3835C47.1745 10.4261 46.9401 10.464 46.7081 10.4972C46.4761 10.5303 46.2749 10.5587 46.1044 10.5824C45.7209 10.6345 45.3776 10.7197 45.0746 10.8381C44.7715 10.9564 44.5324 11.1222 44.3572 11.3352C44.1821 11.5436 44.0945 11.8134 44.0945 12.1449C44.0945 12.6184 44.2673 12.9759 44.6129 13.2173C44.9586 13.4588 45.3989 13.5795 45.9339 13.5795Z" fill="#2F2A27"/>
<path d="M62.2337 7.22301L59.8899 7.47869C59.8236 7.24195 59.7076 7.01941 59.5419 6.81108C59.3809 6.60275 59.1631 6.43466 58.8885 6.30682C58.6139 6.17898 58.2777 6.11506 57.88 6.11506C57.3449 6.11506 56.8951 6.23106 56.5305 6.46307C56.1707 6.69508 55.9931 6.99574 55.9979 7.36506C55.9931 7.68229 56.1091 7.94034 56.3459 8.1392C56.5874 8.33807 56.9851 8.50142 57.5391 8.62926L59.3999 9.02699C60.4321 9.24953 61.1991 9.60227 61.701 10.0852C62.2076 10.5682 62.4633 11.2003 62.468 11.9815C62.4633 12.6681 62.2621 13.2741 61.8643 13.7997C61.4714 14.3205 60.9245 14.7277 60.2237 15.0213C59.523 15.3149 58.718 15.4616 57.8089 15.4616C56.4737 15.4616 55.3989 15.1823 54.5845 14.6236C53.7701 14.0601 53.2848 13.2765 53.1286 12.2727L55.6357 12.0312C55.7493 12.5237 55.9908 12.8954 56.3601 13.1463C56.7294 13.3973 57.21 13.5227 57.8018 13.5227C58.4126 13.5227 58.9027 13.3973 59.272 13.1463C59.6461 12.8954 59.8331 12.5852 59.8331 12.2159C59.8331 11.9034 59.7124 11.6454 59.4709 11.4418C59.2341 11.2382 58.8648 11.0819 58.3629 10.973L56.5021 10.5824C55.4557 10.3646 54.6816 9.99763 54.1797 9.48153C53.6778 8.9607 53.4292 8.30256 53.4339 7.5071C53.4292 6.83475 53.6115 6.25237 53.9808 5.75994C54.3549 5.26278 54.8733 4.87926 55.5362 4.60938C56.2038 4.33475 56.9732 4.19744 57.8445 4.19744C59.1229 4.19744 60.129 4.4697 60.8629 5.0142C61.6016 5.55871 62.0585 6.29498 62.2337 7.22301Z" fill="#2F2A27"/>
<path d="M70.3214 15.2486V0.703125H75.2362C76.3773 0.703125 77.31 0.909091 78.0344 1.32102C78.7636 1.72822 79.3034 2.27983 79.6538 2.97585C80.0041 3.67188 80.1793 4.44839 80.1793 5.3054C80.1793 6.16241 80.0041 6.94129 79.6538 7.64205C79.3081 8.3428 78.7731 8.90152 78.0487 9.31818C77.3242 9.73011 76.3962 9.93608 75.2646 9.93608H71.7418V8.37358H75.2077C75.989 8.37358 76.6164 8.23864 77.0898 7.96875C77.5633 7.69886 77.9066 7.33428 78.1197 6.875C78.3375 6.41098 78.4464 5.88778 78.4464 5.3054C78.4464 4.72301 78.3375 4.20218 78.1197 3.7429C77.9066 3.28362 77.561 2.92377 77.0827 2.66335C76.6045 2.3982 75.97 2.26562 75.1793 2.26562H72.0827V15.2486H70.3214Z" fill="#2F2A27"/>
<path d="M87.2461 15.4759C86.195 15.4759 85.2882 15.2438 84.5259 14.7798C83.7683 14.3111 83.1836 13.6577 82.7717 12.8196C82.3645 11.9768 82.1609 10.9967 82.1609 9.87926C82.1609 8.76184 82.3645 7.77699 82.7717 6.92472C83.1836 6.06771 83.7565 5.40009 84.4904 4.92188C85.229 4.43892 86.0908 4.19744 87.0756 4.19744C87.6438 4.19744 88.2049 4.29214 88.7589 4.48153C89.3129 4.67093 89.8171 4.97869 90.2717 5.40483C90.7262 5.82623 91.0884 6.38494 91.3583 7.08097C91.6282 7.77699 91.7631 8.634 91.7631 9.65199V10.3622H83.354V8.91335H90.0586C90.0586 8.29782 89.9355 7.74858 89.6893 7.26562C89.4478 6.78267 89.1022 6.40152 88.6523 6.12216C88.2073 5.8428 87.6817 5.70312 87.0756 5.70312C86.408 5.70312 85.8304 5.86884 85.3427 6.20028C84.8597 6.52699 84.488 6.95313 84.2276 7.47869C83.9672 8.00426 83.837 8.56771 83.837 9.16903V10.1349C83.837 10.9588 83.979 11.6572 84.2631 12.2301C84.552 12.7983 84.9521 13.2315 85.4634 13.5298C85.9748 13.8234 86.569 13.9702 87.2461 13.9702C87.6864 13.9702 88.0842 13.9086 88.4393 13.7855C88.7991 13.6577 89.1093 13.4683 89.3697 13.2173C89.6301 12.9616 89.8313 12.6444 89.9734 12.2656L91.5927 12.7202C91.4222 13.2694 91.1358 13.7524 90.7333 14.169C90.3308 14.581 89.8337 14.9029 89.2418 15.1349C88.65 15.3622 87.9847 15.4759 87.2461 15.4759Z" fill="#2F2A27"/>
<path d="M94.3129 15.2486V4.33949H95.9322V5.98722H96.0458C96.2447 5.44744 96.6045 5.00947 97.1254 4.6733C97.6462 4.33712 98.2333 4.16903 98.8867 4.16903C99.0098 4.16903 99.1637 4.1714 99.3484 4.17614C99.533 4.18087 99.6727 4.18797 99.7674 4.19744V5.90199C99.7106 5.88778 99.5804 5.86648 99.3768 5.83807C99.1779 5.80492 98.9672 5.78835 98.7447 5.78835C98.2144 5.78835 97.7409 5.89962 97.3242 6.12216C96.9123 6.33996 96.5856 6.64299 96.3441 7.03125C96.1074 7.41477 95.989 7.85275 95.989 8.34517V15.2486H94.3129Z" fill="#2F2A27"/>
<path d="M103.43 0.703125V15.2486H101.754V0.703125H103.43Z" fill="#2F2A27"/>
<path d="M106.728 15.2486V0.703125H108.404V6.07244H108.546C108.669 5.88305 108.839 5.64157 109.057 5.34801C109.28 5.04972 109.597 4.78456 110.009 4.55256C110.426 4.31581 110.989 4.19744 111.699 4.19744C112.618 4.19744 113.427 4.42708 114.128 4.88636C114.829 5.34564 115.376 5.99669 115.769 6.83949C116.162 7.68229 116.358 8.67661 116.358 9.82244C116.358 10.9777 116.162 11.9792 115.769 12.8267C115.376 13.6695 114.831 14.3229 114.135 14.7869C113.439 15.2462 112.637 15.4759 111.728 15.4759C111.027 15.4759 110.466 15.3598 110.044 15.1278C109.623 14.8911 109.299 14.6236 109.071 14.3253C108.844 14.0223 108.669 13.7713 108.546 13.5724H108.347V15.2486H106.728ZM108.375 9.79403C108.375 10.6179 108.496 11.3447 108.738 11.9744C108.979 12.5994 109.332 13.0895 109.796 13.4446C110.26 13.795 110.828 13.9702 111.5 13.9702C112.201 13.9702 112.786 13.7855 113.255 13.4162C113.728 13.0421 114.083 12.5402 114.32 11.9105C114.561 11.276 114.682 10.5705 114.682 9.79403C114.682 9.02699 114.564 8.3357 114.327 7.72017C114.095 7.09991 113.742 6.60985 113.269 6.25C112.8 5.88542 112.211 5.70312 111.5 5.70312C110.819 5.70312 110.246 5.87595 109.782 6.22159C109.318 6.5625 108.967 7.04072 108.73 7.65625C108.494 8.26705 108.375 8.97964 108.375 9.79403Z" fill="#2F2A27"/>
<path d="M122.132 15.5043C121.441 15.5043 120.814 15.3741 120.25 15.1136C119.687 14.8485 119.239 14.4673 118.908 13.9702C118.577 13.4683 118.411 12.8622 118.411 12.152C118.411 11.527 118.534 11.0204 118.78 10.6321C119.026 10.2391 119.355 9.93134 119.767 9.70881C120.179 9.48627 120.634 9.32055 121.131 9.21165C121.633 9.09801 122.137 9.00805 122.644 8.94176C123.307 8.85653 123.844 8.79261 124.256 8.75C124.673 8.70265 124.976 8.62453 125.165 8.51562C125.359 8.40672 125.456 8.21733 125.456 7.94744V7.89062C125.456 7.18987 125.265 6.64536 124.881 6.2571C124.502 5.86884 123.927 5.67472 123.155 5.67472C122.355 5.67472 121.728 5.84991 121.273 6.20028C120.819 6.55066 120.499 6.92472 120.314 7.32244L118.723 6.75426C119.007 6.09138 119.386 5.57528 119.86 5.20597C120.338 4.83191 120.859 4.5715 121.422 4.42472C121.99 4.2732 122.549 4.19744 123.098 4.19744C123.449 4.19744 123.851 4.24006 124.306 4.32528C124.765 4.40578 125.208 4.57386 125.634 4.82955C126.065 5.08523 126.422 5.47112 126.706 5.98722C126.99 6.50331 127.132 7.1946 127.132 8.06108V15.2486H125.456V13.7713H125.371C125.257 14.008 125.068 14.2614 124.803 14.5312C124.538 14.8011 124.185 15.0308 123.745 15.2202C123.304 15.4096 122.767 15.5043 122.132 15.5043ZM122.388 13.9986C123.051 13.9986 123.61 13.8684 124.064 13.608C124.524 13.3475 124.869 13.0114 125.101 12.5994C125.338 12.1875 125.456 11.7543 125.456 11.2997V9.76562C125.385 9.85085 125.229 9.92898 124.988 10C124.751 10.0663 124.476 10.1255 124.164 10.1776C123.856 10.2249 123.555 10.2675 123.262 10.3054C122.973 10.3385 122.739 10.367 122.559 10.3906C122.123 10.4474 121.716 10.5398 121.337 10.6676C120.963 10.7907 120.66 10.9777 120.428 11.2287C120.201 11.4749 120.087 11.8111 120.087 12.2372C120.087 12.8196 120.302 13.2599 120.733 13.5582C121.169 13.8518 121.721 13.9986 122.388 13.9986Z" fill="#2F2A27"/>
<path d="M134.624 15.4759C133.601 15.4759 132.72 15.2344 131.982 14.7514C131.243 14.2685 130.675 13.6032 130.277 12.7557C129.879 11.9081 129.68 10.9399 129.68 9.85085C129.68 8.7429 129.884 7.76515 130.291 6.91761C130.703 6.06534 131.276 5.40009 132.01 4.92188C132.749 4.43892 133.61 4.19744 134.595 4.19744C135.362 4.19744 136.054 4.33949 136.669 4.62358C137.285 4.90767 137.789 5.3054 138.182 5.81676C138.575 6.32812 138.819 6.92472 138.913 7.60653H137.237C137.109 7.10938 136.825 6.66903 136.385 6.28551C135.949 5.89725 135.362 5.70312 134.624 5.70312C133.97 5.70312 133.397 5.87358 132.905 6.21449C132.417 6.55066 132.036 7.02652 131.761 7.64205C131.491 8.25284 131.357 8.97017 131.357 9.79403C131.357 10.6368 131.489 11.3707 131.754 11.9957C132.024 12.6207 132.403 13.1061 132.891 13.4517C133.383 13.7973 133.961 13.9702 134.624 13.9702C135.059 13.9702 135.455 13.8944 135.81 13.7429C136.165 13.5914 136.465 13.3736 136.712 13.0895C136.958 12.8054 137.133 12.4645 137.237 12.0668H138.913C138.819 12.7107 138.584 13.2907 138.21 13.8068C137.841 14.3182 137.351 14.7254 136.74 15.0284C136.134 15.3267 135.429 15.4759 134.624 15.4759Z" fill="#2F2A27"/>
<path d="M143.04 8.68608V15.2486H141.364V0.703125H143.04V6.04403H143.182C143.438 5.48059 143.821 5.03314 144.332 4.7017C144.848 4.36553 145.535 4.19744 146.392 4.19744C147.135 4.19744 147.786 4.34659 148.345 4.64489C148.904 4.93845 149.337 5.39063 149.645 6.00142C149.957 6.60748 150.114 7.37926 150.114 8.31676V15.2486H148.438V8.4304C148.438 7.56392 148.213 6.89394 147.763 6.42045C147.318 5.94223 146.7 5.70312 145.909 5.70312C145.36 5.70312 144.867 5.81913 144.432 6.05114C144.001 6.28314 143.66 6.62169 143.409 7.06676C143.163 7.51184 143.04 8.05161 143.04 8.68608Z" fill="#2F2A27"/>
</svg>
